<?xml version="1.0" encoding="UTF-8" standalone="no"?>
<!DOCTYPE svg PUBLIC "-//W3C//DTD SVG 1.0//EN" "http://www.w3.org/TR/2001/REC-SVG-20010904/DTD/svg10.dtd">
<!-- 由 Microsoft Visio 11.0, SVG Export, v1.0 生成 fsm_destroyStar.svg Page-1 -->
<svg xmlns="http://www.w3.org/2000/svg" xmlns:xlink="http://www.w3.org/1999/xlink" xmlns:ev="http://www.w3.org/2001/xml-events"
		xmlns:v="http://schemas.microsoft.com/visio/2003/SVGExtensions/" width="11.6929in" height="8.26772in"
		viewBox="0 0 841.89 595.276" xml:space="preserve" color-interpolation-filters="sRGB" class="st9">
	<v:documentProperties v:langID="2052" v:metric="true" v:viewMarkup="false">
		<v:userDefs>
			<v:ud v:nameU="msvNoAutoConnect" v:val="VT0(0):26"/>
		</v:userDefs>
	</v:documentProperties>

	<style type="text/css">
	<![CDATA[
		.st1 {visibility:visible}
		.st2 {fill:#cdcdcd;fill-opacity:0.5;stroke:#cdcdcd;stroke-linecap:round;stroke-linejoin:round;stroke-opacity:0.5;stroke-width:0.25}
		.st3 {fill:url(#grad30-6);stroke:#404040;stroke-linecap:round;stroke-linejoin:round;stroke-width:0.25}
		.st4 {fill:#000000;font-family:宋体;font-size:1.99999em}
		.st5 {font-size:1em}
		.st6 {marker-end:url(#mrkr5-34);stroke:#404040;stroke-linecap:round;stroke-linejoin:round;stroke-width:1}
		.st7 {fill:#404040;fill-opacity:1;stroke:#404040;stroke-opacity:1;stroke-width:0.28409090909091}
		.st8 {marker-end:url(#mrkr5-53);stroke:#404040;stroke-linecap:round;stroke-linejoin:round;stroke-width:1}
		.st9 {fill:none;fill-rule:evenodd;font-size:12px;overflow:visible;stroke-linecap:square;stroke-miterlimit:3}
	]]>
	</style>

	<defs id="Patterns_And_Gradients">
		<linearGradient id="grad30-6" v:fillPattern="30" v:foreground="#f0f0f0" v:background="#ffffff" x1="0" y1="1" x2="0" y2="0">
			<stop offset="0" style="stop-color:#f0f0f0;stop-opacity:1"/>
			<stop offset="1" style="stop-color:#ffffff;stop-opacity:1"/>
		</linearGradient>
	</defs>
	<defs id="Markers">
		<g id="lend5">
			<path d="M 2 1 L 0 0 L 1.98117 -0.993387 C 1.67173 -0.364515 1.67301 0.372641 1.98465 1.00043 " style="stroke:none"/>
		</g>
		<marker id="mrkr5-34" class="st7" v:arrowType="5" v:arrowSize="2" v:setback="5.8" refX="-5.8" orient="auto"
				markerUnits="strokeWidth" overflow="visible">
			<use xlink:href="#lend5" transform="scale(-3.52,-3.52) "/>
		</marker>
		<marker id="mrkr5-53" class="st7" v:arrowType="5" v:arrowSize="2" v:setback="6.16" refX="-6.16" orient="auto"
				markerUnits="strokeWidth" overflow="visible">
			<use xlink:href="#lend5" transform="scale(-3.52,-3.52) "/>
		</marker>
	</defs>
	<g v:mID="0" v:index="1" v:groupContext="foregroundPage">
		<v:userDefs>
			<v:ud v:nameU="msvThemeColors" v:val="VT0(36):26"/>
			<v:ud v:nameU="msvThemeEffects" v:val="VT0(16):26"/>
			<v:ud v:nameU="msvThemeOrder" v:val="VT0(0):26"/>
		</v:userDefs>
		<title>页-1</title>
		<v:pageProperties v:drawingScale="0.0393701" v:pageScale="0.0393701" v:drawingUnits="24" v:shadowOffsetX="8.50394"
				v:shadowOffsetY="-8.50394"/>
		<v:layer v:name="连接线" v:index="0"/>
		<v:layer v:name="流程图" v:index="1"/>
		<g id="shape1-1" v:mID="1" v:groupContext="shape" v:layerMember="0;1" transform="translate(319.606,-404.646)">
			<title>页面内引用</title>
			<desc>锁定 行星</desc>
			<v:userDefs>
				<v:ud v:nameU="visVersion" v:prompt="" v:val="VT0(14):26"/>
				<v:ud v:nameU="msvThemeColors" v:val="VT0(36):26"/>
				<v:ud v:nameU="msvThemeEffects" v:val="VT0(16):26"/>
			</v:userDefs>
			<v:textBlock v:margins="rect(2,2,2,2)" v:tabSpace="42.5197"/>
			<v:textRect cx="48.8976" cy="546.378" width="97.8" height="97.7953"/>
			<g id="shadow1-2" v:groupContext="shadow" v:shadowOffsetX="1.44" v:shadowOffsetY="-1.44" v:shadowType="1"
					transform="matrix(1,0,0,1,1.44,1.44)" class="st1">
				<path d="M0 546.38 A48.8976 48.8976 0 0 1 97.8 546.38 A48.8976 48.8976 0 1 1 -0 546.38 Z" class="st2"/>
			</g>
			<path d="M0 546.38 A48.8976 48.8976 0 0 1 97.8 546.38 A48.8976 48.8976 0 1 1 -0 546.38 Z" class="st3"/>
			<text x="24.9" y="538.39" class="st4" v:langID="2052"><v:paragraph v:horizAlign="1"/><v:tabList/>锁定<v:newlineChar/><tspan
						x="24.9" dy="1.331em" class="st5">行星</tspan></text>		</g>
		<g id="shape2-9" v:mID="2" v:groupContext="shape" v:layerMember="0;1" transform="translate(319.606,-177.874)">
			<title>页面内引用.2</title>
			<desc>锁定 恒星</desc>
			<v:userDefs>
				<v:ud v:nameU="visVersion" v:prompt="" v:val="VT0(14):26"/>
				<v:ud v:nameU="msvThemeColors" v:val="VT0(36):26"/>
				<v:ud v:nameU="msvThemeEffects" v:val="VT0(16):26"/>
			</v:userDefs>
			<v:textBlock v:margins="rect(2,2,2,2)" v:tabSpace="42.5197"/>
			<v:textRect cx="48.8976" cy="546.378" width="97.8" height="97.7953"/>
			<g id="shadow2-10" v:groupContext="shadow" v:shadowOffsetX="1.44" v:shadowOffsetY="-1.44" v:shadowType="1"
					transform="matrix(1,0,0,1,1.44,1.44)" class="st1">
				<path d="M0 546.38 A48.8976 48.8976 0 0 1 97.8 546.38 A48.8976 48.8976 0 1 1 -0 546.38 Z" class="st2"/>
			</g>
			<path d="M0 546.38 A48.8976 48.8976 0 0 1 97.8 546.38 A48.8976 48.8976 0 1 1 -0 546.38 Z" class="st3"/>
			<text x="24.9" y="538.39" class="st4" v:langID="2052"><v:paragraph v:horizAlign="1"/><v:tabList/>锁定<v:newlineChar/><tspan
						x="24.9" dy="1.331em" class="st5">恒星</tspan></text>		</g>
		<g id="shape3-16" v:mID="3" v:groupContext="shape" v:layerMember="0;1" transform="translate(432.992,-291.26)">
			<title>页面内引用.3</title>
			<desc>过热</desc>
			<v:userDefs>
				<v:ud v:nameU="visVersion" v:prompt="" v:val="VT0(14):26"/>
				<v:ud v:nameU="msvThemeColors" v:val="VT0(36):26"/>
				<v:ud v:nameU="msvThemeEffects" v:val="VT0(16):26"/>
			</v:userDefs>
			<v:textBlock v:margins="rect(2,2,2,2)" v:tabSpace="42.5197"/>
			<v:textRect cx="48.8976" cy="546.378" width="97.8" height="97.7953"/>
			<g id="shadow3-17" v:groupContext="shadow" v:shadowOffsetX="1.44" v:shadowOffsetY="-1.44" v:shadowType="1"
					transform="matrix(1,0,0,1,1.44,1.44)" class="st1">
				<path d="M0 546.38 A48.8976 48.8976 0 0 1 97.8 546.38 A48.8976 48.8976 0 1 1 -0 546.38 Z" class="st2"/>
			</g>
			<path d="M0 546.38 A48.8976 48.8976 0 0 1 97.8 546.38 A48.8976 48.8976 0 1 1 -0 546.38 Z" class="st3"/>
			<text x="24.9" y="554.37" class="st4" v:langID="2052"><v:paragraph v:horizAlign="1"/><v:tabList/>过热</text>		</g>
		<g id="shape4-22" v:mID="4" v:groupContext="shape" v:layerMember="0;1" transform="translate(206.22,-291.26)">
			<title>页面内引用.4</title>
			<desc>待机</desc>
			<v:userDefs>
				<v:ud v:nameU="visVersion" v:prompt="" v:val="VT0(14):26"/>
				<v:ud v:nameU="msvThemeColors" v:val="VT0(36):26"/>
				<v:ud v:nameU="msvThemeEffects" v:val="VT0(16):26"/>
			</v:userDefs>
			<v:textBlock v:margins="rect(2,2,2,2)" v:tabSpace="42.5197"/>
			<v:textRect cx="48.8976" cy="546.378" width="97.8" height="97.7953"/>
			<g id="shadow4-23" v:groupContext="shadow" v:shadowOffsetX="1.44" v:shadowOffsetY="-1.44" v:shadowType="1"
					transform="matrix(1,0,0,1,1.44,1.44)" class="st1">
				<path d="M0 546.38 A48.8976 48.8976 0 0 1 97.8 546.38 A48.8976 48.8976 0 1 1 -0 546.38 Z" class="st2"/>
			</g>
			<path d="M0 546.38 A48.8976 48.8976 0 0 1 97.8 546.38 A48.8976 48.8976 0 1 1 -0 546.38 Z" class="st3"/>
			<text x="24.9" y="554.37" class="st4" v:langID="2052"><v:paragraph v:horizAlign="1"/><v:tabList/>待机</text>		</g>
		<g id="shape5-28" v:mID="5" v:groupContext="shape" v:layerMember="0" transform="translate(255.118,-291.26)">
			<title>动态连接线</title>
			<v:userDefs>
				<v:ud v:nameU="msvThemeColors" v:val="VT0(36):26"/>
				<v:ud v:nameU="msvThemeEffects" v:val="VT0(16):26"/>
			</v:userDefs>
			<path d="M0 595.28 C-0 611.4 0 635.58 12.09 647.67 C22.72 658.3 42.7 659.59 58.33 659.74 L58.69 659.74" class="st6"/>
		</g>
		<g id="shape6-35" v:mID="6" v:groupContext="shape" v:layerMember="0" transform="translate(417.402,-226.772)">
			<title>动态连接线.6</title>
			<v:userDefs>
				<v:ud v:nameU="msvThemeColors" v:val="VT0(36):26"/>
				<v:ud v:nameU="msvThemeEffects" v:val="VT0(16):26"/>
			</v:userDefs>
			<path d="M0 595.28 C16.12 595.28 40.31 595.28 52.4 583.18 C63.03 572.55 64.31 552.58 64.47 536.95 L64.47 536.59"
					class="st6"/>
		</g>
		<g id="shape8-41" v:mID="8" v:groupContext="shape" v:layerMember="0" transform="translate(319.606,-453.543)">
			<title>动态连接线.8</title>
			<v:userDefs>
				<v:ud v:nameU="msvThemeColors" v:val="VT0(36):26"/>
				<v:ud v:nameU="msvThemeEffects" v:val="VT0(16):26"/>
			</v:userDefs>
			<path d="M0 595.28 C-16.12 595.28 -40.31 595.28 -52.4 607.37 C-63.03 618 -64.31 637.98 -64.47 653.6 L-64.47 653.96"
					class="st6"/>
		</g>
		<g id="shape9-47" v:mID="9" v:groupContext="shape" v:layerMember="0" transform="translate(361.249,-406.61)">
			<title>动态连接线.9</title>
			<v:userDefs>
				<v:ud v:nameU="msvThemeColors" v:val="VT0(36):26"/>
				<v:ud v:nameU="msvThemeEffects" v:val="VT0(16):26"/>
			</v:userDefs>
			<path d="M-6.46 595.28 L-7.71 595.28 L-7.71 722.4" class="st8"/>
		</g>
		<g id="shape10-54" v:mID="10" v:groupContext="shape" v:layerMember="0" transform="translate(375.235,-273.705)">
			<title>动态连接线.10</title>
			<v:userDefs>
				<v:ud v:nameU="msvThemeColors" v:val="VT0(36):26"/>
				<v:ud v:nameU="msvThemeEffects" v:val="VT0(16):26"/>
			</v:userDefs>
			<path d="M6.99 595.28 L7.19 595.28 L7.19 468.47" class="st8"/>
		</g>
		<g id="shape7-60" v:mID="7" v:groupContext="shape" v:layerMember="0" transform="translate(481.89,-394.659)">
			<title>动态连接线.7</title>
			<v:userDefs>
				<v:ud v:nameU="msvThemeColors" v:val="VT0(36):26"/>
				<v:ud v:nameU="msvThemeEffects" v:val="VT0(16):26"/>
			</v:userDefs>
			<path d="M0 600.88 C-0 594.29 -75.41 466.24 -135.39 465.53 C-190.22 464.88 -232.17 570.59 -241.64 597.98 L-241.75 598.33"
					class="st6"/>
		</g>
		<g id="shape11-66" v:mID="11" v:groupContext="shape" v:layerMember="0" transform="translate(304.016,-340.157)">
			<title>动态连接线.11</title>
			<v:userDefs>
				<v:ud v:nameU="msvThemeColors" v:val="VT0(36):26"/>
				<v:ud v:nameU="msvThemeEffects" v:val="VT0(16):26"/>
			</v:userDefs>
			<path d="M0 595.28 C21.26 595.28 21.26 574.56 21.26 553.83 C21.26 539.67 21.26 525.51 23.37 518.37 L23.59 518.1"
					class="st6"/>
		</g>
	</g>
</svg>
